<?xml version="1.0" encoding="iso-8859-1"?>
<!-- Generator: Adobe Illustrator 19.0.0, SVG Export Plug-In . SVG Version: 6.00 Build 0)  -->
<svg version="1.1" id="Capa_1" xmlns="http://www.w3.org/2000/svg" xmlns:xlink="http://www.w3.org/1999/xlink" x="0px" y="0px"
	 viewBox="0 0 512 512" style="enable-background:new 0 0 512 512;" xml:space="preserve">
<path style="fill:#F4A14E;" d="M512,256c0,23.218-3.093,45.725-8.882,67.103c-4.911,18.119-11.755,35.443-20.313,51.733
	c-8.704,16.583-19.174,32.089-31.159,46.279c-44.523,52.694-109.944,87.155-183.474,90.593C264.14,511.906,260.086,512,256,512
	c-23.73,0-46.707-3.229-68.503-9.279C99.861,478.448,31.107,408.733,8.202,320.543C2.853,299.928,0,278.298,0,256
	c0-5.172,0.157-10.303,0.46-15.391C5.695,152.231,55.766,75.922,128.24,34.116c5.11-2.957,10.324-5.726,15.642-8.317
	c1.87-0.92,3.751-1.808,5.642-2.675c2.612-1.191,5.235-2.351,7.899-3.448c5.747-2.403,11.598-4.608,17.554-6.583
	C200.443,4.598,227.683,0,256,0c80.311,0,151.991,36.979,198.907,94.845c6.875,8.453,13.197,17.345,18.944,26.645
	C498.04,160.58,512,206.66,512,256z"/>
<rect x="162.864" y="71.624" transform="matrix(-0.9335 0.3585 -0.3585 -0.9335 379.497 106.8404)" style="fill:#279FC9;" width="33.958" height="33.958"/>
<path style="fill:#F9EED7;" d="M342.59,102.037c-1.293,1.851-3.127,3.339-5.381,4.205L68.397,209.476
	c-2.253,0.865-4.612,0.988-6.812,0.479c5.044-14.059,11.65-27.521,19.703-40.127c22.046-34.49,54.908-62.501,96.042-78.298
	s84.298-16.983,123.763-6.116C315.514,89.39,329.431,94.969,342.59,102.037z"/>
<path style="fill:#FF525D;" d="M451.647,421.115c-44.523,52.694-109.944,87.155-183.474,90.593C264.14,511.906,260.086,512,256,512
	c-23.73,0-46.707-3.229-68.503-9.279L74.041,207.308l-4.869-12.685l52.673-20.229l36.822-14.137l97.102-37.292l55.996-21.504
	l14.921-5.726l4.869,12.685L451.647,421.115z"/>
<path style="fill:#EF4152;" d="M268.173,511.707C264.14,511.906,260.086,512,256,512c-23.73,0-46.707-3.229-68.503-9.279
	L74.041,207.308l-4.869-12.685l52.673-20.219l14.639-5.622l4.869,12.685L268.173,511.707z"/>
<g>
	<path style="fill:#E8DBC4;" d="M177.33,91.529c0,0-34.522,26.69-19.539,65.707c2.536,6.604,1.107,12.995-3.009,19.064
		l-86.385,33.176c-2.253,0.865-4.612,0.988-6.812,0.479c5.044-14.059,11.65-27.521,19.703-40.127
		C103.333,135.337,136.195,107.327,177.33,91.529z"/>
	<path style="fill:#E8DBC4;" d="M340.73,82.739l3.214,8.37c1.453,3.785,0.813,7.859-1.354,10.93
		c-1.293,1.851-3.127,3.339-5.381,4.205L68.397,209.476c-2.253,0.865-4.612,0.988-6.812,0.479c-3.666-0.831-6.868-3.429-8.322-7.214
		l-3.214-8.37c-2.319-6.037,0.697-12.816,6.735-15.134L325.596,76.003C331.634,73.685,338.411,76.701,340.73,82.739z"/>
</g>
<path style="fill:#D6C8B0;" d="M122.518,176.141l-3.212-8.363c-2.32-6.041,0.697-12.818,6.738-15.137l-69.256,26.597
	c-6.041,2.32-9.057,9.097-6.737,15.137l3.212,8.363c2.32,6.041,9.097,9.057,15.137,6.738l69.256-26.597
	C131.615,185.198,124.838,182.181,122.518,176.141z"/>
<polygon style="fill:#FFD15C;" points="206.9,72.338 143.496,96.684 124.029,16.854 167.926,0 178.709,20.02 192.606,45.798 "/>
<polygon style="fill:#EDBB4C;" points="143.494,96.689 124.028,16.858 144.513,8.991 171.781,85.825 "/>
<path style="fill:#797B89;" d="M192.606,45.798c-1.4,1.317-3.062,2.382-4.963,3.114c-7.805,2.999-16.572-0.899-19.571-8.714
	c-2.999-7.805,0.899-16.572,8.704-19.571c0.637-0.251,1.285-0.449,1.933-0.606L192.606,45.798z"/>
<g>
</g>
<g>
</g>
<g>
</g>
<g>
</g>
<g>
</g>
<g>
</g>
<g>
</g>
<g>
</g>
<g>
</g>
<g>
</g>
<g>
</g>
<g>
</g>
<g>
</g>
<g>
</g>
<g>
</g>
</svg>
