<?xml version="1.0" encoding="iso-8859-1"?>
<!-- Generator: Adobe Illustrator 19.0.0, SVG Export Plug-In . SVG Version: 6.00 Build 0)  -->
<svg version="1.1" id="Capa_1" xmlns="http://www.w3.org/2000/svg" xmlns:xlink="http://www.w3.org/1999/xlink" x="0px" y="0px"
	 viewBox="0 0 512 512" style="enable-background:new 0 0 512 512;" xml:space="preserve">
<path style="fill:#B7E5FF;" d="M68.267,256l2.56,2.876c47.241,52.497,114.551,82.466,185.173,82.458l0,0
	c70.622,0.009,137.933-29.961,185.173-82.458l2.56-2.876l-2.56-2.876C393.933,200.627,326.622,170.658,256,170.667l0,0
	c-70.622-0.009-137.933,29.961-185.173,82.458L68.267,256z"/>
<circle style="fill:#4DB5FF;" cx="256" cy="256" r="85.333"/>
<g>
	<path style="fill:#FFD4B0;" d="M503.467,8.534v174.933c0,11.785-9.549,21.333-21.333,21.333l0,0
		c-11.785,0-21.333-9.549-21.333-21.333v-38.4H315.734c-9.429,0-17.067-7.637-17.067-17.067l0,0c0-9.429,7.637-17.067,17.067-17.067
		h76.8V8.534H503.467z"/>
	<path style="fill:#FFD4B0;" d="M8.534,503.467V328.534c0-11.785,9.549-21.333,21.333-21.333l0,0
		c11.785,0,21.333,9.549,21.333,21.333v38.4h145.067c9.429,0,17.067,7.637,17.067,17.067l0,0c0,9.429-7.637,17.067-17.067,17.067
		h-76.8v102.4H8.534z"/>
</g>
<g>
	<path style="fill:#EDC4A2;" d="M58.326,377.327c-4.105,40.064-21.649,77.559-49.792,106.368v19.772h110.933v-95.309
		C96.342,404.608,74.931,393.814,58.326,377.327z"/>
	<path style="fill:#EDC4A2;" d="M392.534,110.934h-19.379c13.841,14.054,30.003,25.6,47.787,34.133h15.881
		c-8.994-47.642,19.951-94.251,66.645-107.307V8.534H392.534V110.934z"/>
</g>
<circle style="fill:#235087;" cx="256" cy="256" r="34.133"/>
<path style="fill:#FFD4B0;" d="M384,76.8h34.133c9.429,0,17.067,7.637,17.067,17.067l0,0c0,9.429-7.637,17.067-17.067,17.067H384
	c-9.429,0-17.067-7.637-17.067-17.067l0,0C366.934,84.438,374.571,76.8,384,76.8z"/>
<path style="fill:#EDC4A2;" d="M379.315,110.2c1.519,0.461,3.098,0.708,4.685,0.734h34.133c9.336,0.094,16.981-7.407,17.067-16.742
	c0.017-2.074-0.341-4.139-1.067-6.076C418.21,100.335,399.258,107.973,379.315,110.2z"/>
<path style="fill:#FFD4B0;" d="M384,8.534h34.133c9.429,0,17.067,7.637,17.067,17.067l0,0c0,9.429-7.637,17.067-17.067,17.067H384
	c-9.429,0-17.067-7.637-17.067-17.067l0,0C366.934,16.171,374.571,8.534,384,8.534z"/>
<path style="fill:#EDC4A2;" d="M379.315,41.933c1.519,0.461,3.098,0.708,4.685,0.734h34.133c9.336,0.094,16.981-7.407,17.067-16.742
	c0.017-2.074-0.341-4.139-1.067-6.076C418.21,32.069,399.258,39.706,379.315,41.933z"/>
<path style="fill:#FFD4B0;" d="M384,42.667h34.133c9.429,0,17.067,7.637,17.067,17.067l0,0c0,9.429-7.637,17.067-17.067,17.067H384
	c-9.429,0-17.067-7.637-17.067-17.067l0,0C366.934,50.304,374.571,42.667,384,42.667z"/>
<path style="fill:#EDC4A2;" d="M379.315,76.066c1.519,0.461,3.098,0.708,4.685,0.734h34.133c9.336,0.094,16.981-7.407,17.067-16.742
	c0.017-2.074-0.341-4.139-1.067-6.076C418.21,66.202,399.258,73.839,379.315,76.066z"/>
<path style="fill:#FFD4B0;" d="M93.867,401.067H128c9.429,0,17.067,7.637,17.067,17.067l0,0c0,9.429-7.637,17.067-17.067,17.067
	H93.867c-9.429,0-17.067-7.637-17.067-17.067l0,0C76.8,408.704,84.438,401.067,93.867,401.067z"/>
<path style="fill:#EDC4A2;" d="M89.182,434.466c1.519,0.461,3.098,0.708,4.685,0.734H128c9.335,0.094,16.981-7.407,17.067-16.742
	c0.017-2.074-0.341-4.139-1.067-6.076C128.077,424.602,109.125,432.239,89.182,434.466z"/>
<path style="fill:#FFD4B0;" d="M93.867,469.334H128c9.429,0,17.067,7.637,17.067,17.067l0,0c0,9.429-7.637,17.067-17.067,17.067
	H93.867c-9.429,0-17.067-7.637-17.067-17.067l0,0C76.8,476.971,84.438,469.334,93.867,469.334z"/>
<path style="fill:#EDC4A2;" d="M89.182,502.733c1.519,0.461,3.098,0.708,4.685,0.734H128c9.335,0.094,16.981-7.407,17.067-16.742
	c0.017-2.074-0.341-4.139-1.067-6.076C128.077,492.869,109.125,500.506,89.182,502.733z"/>
<path style="fill:#FFD4B0;" d="M93.867,435.2H128c9.429,0,17.067,7.637,17.067,17.067l0,0c0,9.429-7.637,17.067-17.067,17.067
	H93.867c-9.429,0-17.067-7.637-17.067-17.067l0,0C76.8,442.838,84.438,435.2,93.867,435.2z"/>
<g>
	<path style="fill:#EDC4A2;" d="M89.182,468.6c1.519,0.461,3.098,0.708,4.685,0.734H128c9.335,0.094,16.981-7.407,17.067-16.742
		c0.017-2.074-0.341-4.139-1.067-6.076C128.077,458.735,109.125,466.373,89.182,468.6z"/>
	<path style="fill:#EDC4A2;" d="M157.449,400.333c1.519,0.461,3.098,0.708,4.685,0.734h34.133
		c9.335,0.094,16.981-7.407,17.067-16.742c0.017-2.074-0.341-4.139-1.067-6.076C196.344,390.469,177.391,398.106,157.449,400.333z"
		/>
	<path style="fill:#EDC4A2;" d="M470.759,201.455c9.89,6.323,23.031,3.43,29.363-6.46c2.202-3.439,3.362-7.45,3.345-11.529v-23.134
		C496.316,176.649,485.043,190.823,470.759,201.455z"/>
</g>
<g>
	<path style="fill:#96D0EA;" d="M194.85,315.443c-3.78,0.162-7.569,0.29-11.383,0.29c-15.078-0.017-30.131-1.34-44.979-3.951
		c36.139,19.379,76.51,29.525,117.513,29.551C232.952,341.351,210.885,332.007,194.85,315.443z"/>
	<path style="fill:#96D0EA;" d="M392.064,211.132c-14.549,19.447-31.735,36.77-51.063,51.473
		c-3.422,44.416-40.457,78.711-85.001,78.729c70.622,0.009,137.933-29.961,185.173-82.458l2.56-2.876l-2.56-2.876
		C426.693,237.056,410.189,222.942,392.064,211.132z"/>
</g>
<path style="fill:#4D97FF;" d="M341.001,262.605c-42.155,32.162-93.175,50.603-146.15,52.838
	c32.768,33.783,86.724,34.611,120.508,1.843C330.291,302.797,339.414,283.35,341.001,262.605z"/>
<path d="M8.534,512H128c14.08,0.06,25.54-11.298,25.6-25.378c0.026-6.391-2.347-12.57-6.656-17.289
	c8.875-9.651,8.875-24.482,0-34.133c6.417-6.869,8.405-16.785,5.12-25.6h44.203c14.14,0,25.6-11.46,25.6-25.6
	c0-14.14-11.46-25.6-25.6-25.6H59.734v-29.867c0-16.495-13.372-29.867-29.867-29.867S0,312.039,0,328.534v174.933
	C0,508.177,3.823,512,8.534,512z M136.534,452.267c0,4.71-3.823,8.533-8.533,8.533H93.867c-4.71,0-8.533-3.823-8.533-8.533
	c0-4.71,3.823-8.533,8.533-8.533H128C132.711,443.734,136.534,447.557,136.534,452.267z M128,494.934H93.867
	c-4.71,0-8.533-3.823-8.533-8.533s3.823-8.533,8.533-8.533H128c4.71,0,8.533,3.823,8.533,8.533S132.711,494.934,128,494.934z
	 M136.534,418.134c0,4.71-3.823,8.533-8.533,8.533H93.867c-4.71,0-8.533-3.823-8.533-8.533c0-4.71,3.823-8.533,8.533-8.533H128
	C132.711,409.6,136.534,413.423,136.534,418.134z M17.067,328.534c0-7.066,5.734-12.8,12.8-12.8s12.8,5.734,12.8,12.8v38.4
	c0,4.71,3.823,8.533,8.533,8.533h145.067c4.71,0,8.533,3.823,8.533,8.533s-3.823,8.533-8.533,8.533h-102.4
	c-14.08-0.06-25.54,11.298-25.6,25.378c-0.026,6.391,2.347,12.561,6.656,17.289c-8.875,9.651-8.875,24.482,0,34.133
	c-6.417,6.869-8.405,16.785-5.12,25.6H17.067V328.534z"/>
<path d="M503.467,0H384c-14.08-0.06-25.54,11.298-25.6,25.378c-0.026,6.391,2.347,12.561,6.656,17.289
	c-8.875,9.651-8.875,24.482,0,34.133c-6.417,6.869-8.405,16.785-5.12,25.6h-44.203c-14.14,0-25.6,11.46-25.6,25.6
	s11.46,25.6,25.6,25.6h136.533v29.867c0,16.495,13.372,29.867,29.867,29.867c16.495,0,29.867-13.372,29.867-29.867V8.534
	C512,3.823,508.177,0,503.467,0z M375.467,59.734c0-4.71,3.823-8.533,8.533-8.533h34.133c4.71,0,8.533,3.823,8.533,8.533
	s-3.823,8.533-8.533,8.533H384C379.29,68.267,375.467,64.444,375.467,59.734z M384,17.067h34.133c4.71,0,8.533,3.823,8.533,8.533
	s-3.823,8.533-8.533,8.533H384c-4.71,0-8.533-3.823-8.533-8.533S379.29,17.067,384,17.067z M375.467,93.867
	c0-4.71,3.823-8.533,8.533-8.533h34.133c4.71,0,8.533,3.823,8.533,8.533s-3.823,8.533-8.533,8.533H384
	C379.29,102.4,375.467,98.577,375.467,93.867z M494.934,183.467c0,7.066-5.734,12.8-12.8,12.8c-7.066,0-12.8-5.734-12.8-12.8v-38.4
	c0-4.71-3.823-8.533-8.533-8.533H315.734c-4.71,0-8.533-3.823-8.533-8.533s3.823-8.533,8.533-8.533h102.4
	c14.08,0.06,25.54-11.298,25.6-25.378c0.026-6.391-2.347-12.57-6.656-17.289c8.875-9.651,8.875-24.482,0-34.133
	c6.417-6.869,8.405-16.785,5.12-25.6h52.736V183.467z"/>
<path d="M256,298.667c23.561,0,42.667-19.106,42.667-42.667S279.561,213.334,256,213.334S213.334,232.44,213.334,256
	C213.359,279.552,232.448,298.641,256,298.667z M256,230.4c14.14,0,25.6,11.46,25.6,25.6c0,14.14-11.46,25.6-25.6,25.6
	c-14.14,0-25.6-11.46-25.6-25.6C230.4,241.861,241.861,230.4,256,230.4z"/>
<path d="M447.48,247.416c-95.172-105.754-258.048-114.33-363.802-19.157c-6.716,6.042-13.107,12.442-19.157,19.157l-2.56,2.876
	c-2.918,3.243-2.918,8.175,0,11.418l2.56,2.876c95.172,105.754,258.057,114.33,363.802,19.157
	c6.716-6.042,13.107-12.442,19.157-19.157l2.56-2.876c2.918-3.243,2.918-8.175,0-11.418L447.48,247.416z M332.8,256
	c0,42.419-34.381,76.8-76.8,76.8s-76.8-34.381-76.8-76.8s34.381-76.8,76.8-76.8C298.394,179.251,332.749,213.607,332.8,256z
	 M79.787,256c30.225-32.444,68.813-55.927,111.522-67.849c-37.47,35.524-39.04,94.694-3.524,132.156
	c1.143,1.203,2.321,2.381,3.524,3.524C148.6,311.911,110.012,288.444,79.787,256z M320.691,323.849
	c37.47-35.524,39.04-94.694,3.524-132.156c-1.143-1.203-2.321-2.381-3.524-3.524c42.709,11.921,81.297,35.388,111.522,67.831
	C401.989,288.453,363.401,311.928,320.691,323.849z"/>
<g>
</g>
<g>
</g>
<g>
</g>
<g>
</g>
<g>
</g>
<g>
</g>
<g>
</g>
<g>
</g>
<g>
</g>
<g>
</g>
<g>
</g>
<g>
</g>
<g>
</g>
<g>
</g>
<g>
</g>
</svg>
